<?xml version="1.0" encoding="iso-8859-1"?>
<!-- Generator: Adobe Illustrator 16.0.0, SVG Export Plug-In . SVG Version: 6.00 Build 0)  -->
<!DOCTYPE svg PUBLIC "-//W3C//DTD SVG 1.1//EN" "http://www.w3.org/Graphics/SVG/1.1/DTD/svg11.dtd">
<svg xmlns="http://www.w3.org/2000/svg" xmlns:xlink="http://www.w3.org/1999/xlink" version="1.1" id="Capa_1" x="0px" y="0px" width="512px" height="512px" viewBox="0 0 176.646 176.646" style="enable-background:new 0 0 176.646 176.646;" xml:space="preserve">
<g>
	<g>
		<path d="M89.96,96.038l3.2-3.678c-1.547,0.56-3.145,0.895-4.835,0.895c-1.689,0-3.285-0.347-4.844-0.907l3.203,3.69h0.088    l-8.257,19.973l9.816,9.797l9.821-9.797l-8.263-19.973H89.96z" fill="#FFFFFF"/>
		<path d="M140.364,0H36.285C25.163,0,16.121,9.036,16.121,20.152v4.582h12.596c4.177,0,7.557,3.392,7.557,7.56    c0,4.171-3.379,7.55-7.557,7.55H16.121V52.75h12.596c4.177,0,7.557,3.392,7.557,7.557c0,4.171-3.379,7.551-7.557,7.551H16.121    v12.909h12.596c4.177,0,7.557,3.385,7.557,7.557c0,4.171-3.379,7.557-7.557,7.557H16.121v12.908h12.596    c4.177,0,7.557,3.38,7.557,7.551c0,4.165-3.379,7.557-7.557,7.557H16.121v12.903h12.596c4.177,0,7.557,3.386,7.557,7.55    c0,4.166-3.379,7.563-7.557,7.563H16.121v4.579c0,11.119,9.042,20.154,20.165,20.154h104.079c11.119,0,20.161-9.035,20.161-20.154    V20.152C160.531,9.036,151.489,0,140.364,0z M53.301,117.18c0-9.743,11.237-22.914,26.369-26.756    c-6.321-4.253-10.687-12.669-10.687-20.24c0-10.675,8.656-19.354,19.342-19.354c10.693,0,19.352,8.68,19.352,19.354    c0,7.571-4.372,15.987-10.705,20.24c15.15,3.842,26.379,17.013,26.379,26.756C123.345,128.712,53.301,128.712,53.301,117.18z" fill="#FFFFFF"/>
	</g>
</g>
<g>
</g>
<g>
</g>
<g>
</g>
<g>
</g>
<g>
</g>
<g>
</g>
<g>
</g>
<g>
</g>
<g>
</g>
<g>
</g>
<g>
</g>
<g>
</g>
<g>
</g>
<g>
</g>
<g>
</g>
</svg>
