<?xml version="1.0" encoding="iso-8859-1"?>
<!-- Generator: Adobe Illustrator 19.0.0, SVG Export Plug-In . SVG Version: 6.00 Build 0)  -->
<svg xmlns="http://www.w3.org/2000/svg" xmlns:xlink="http://www.w3.org/1999/xlink" version="1.1" id="Capa_1" x="0px" y="0px" viewBox="0 0 512.002 512.002" style="enable-background:new 0 0 512.002 512.002;" xml:space="preserve" width="512px" height="512px">
<g>
	<g>
		<path d="M458.258,110.285c-3.899-3.909-10.229-3.909-14.138,0c-3.899,3.899-3.899,10.239,0,14.138    c3.909,3.909,10.239,3.909,14.138,0C462.167,120.524,462.167,114.185,458.258,110.285z" fill="#FFFFFF"/>
	</g>
</g>
<g>
	<g>
		<path d="M494.507,424.585c-11.067-10.003-177.729-160.65-189.403-171.203l34.148-37.831c36.8,18.376,81.381,11.411,110.719-17.925    c29.345-29.345,49.996-63.343,58.15-95.732c8.537-33.907,2.817-63.003-16.106-81.927C473.092,1.045,443.996-4.675,410.088,3.865    c-32.388,8.157-66.383,28.811-95.719,58.154c-29.185,29.163-36.4,73.748-17.934,110.707l-40.357,36.428l-32.51-29.139    c8.915-25.186,2.731-53.566-16.546-72.841C194.47,94.727,117.207,18.112,101.897,2.93c-3.92-3.888-10.25-3.862-14.14,0.06    c-3.888,3.92-3.862,10.252,0.06,14.14l83.799,83.097l-14.076,14.074L73.616,31.202c-3.924-3.885-10.255-3.854-14.14,0.069    c-3.886,3.924-3.854,10.255,0.069,14.14l83.853,83.029l-14.142,14.14L45.329,59.486c-3.925-3.883-10.254-3.853-14.141,0.07    c-3.885,3.924-3.854,10.256,0.07,14.141l83.855,83.022l-14.197,14.196L17.057,87.766c-3.92-3.888-10.252-3.86-14.141,0.061    c-3.886,3.921-3.86,10.252,0.06,14.14c0.018,0.018,0.029,0.029,0.037,0.037c0.003,0.003,0.005,0.005,0.008,0.007    c0.007,0.007,0.009,0.008,0.005,0.005c0.694,0.688,9.907,9.824,105.047,104.167c19.949,19.949,48.513,25.101,72.814,16.539    l26.907,30.015L17.465,424.542c-22.184,18.926-23.244,52.55-2.909,72.883c20.444,20.444,54.042,19.176,72.882-2.908    l169.457-187.731c2.533,2.837,167.467,187.592,167.613,187.756c18.795,22.054,52.407,23.421,72.904,2.924    C517.783,477.096,516.647,443.476,494.507,424.585z M328.506,76.16c26.823-26.828,57.531-45.617,86.466-52.904    c26.811-6.755,49.152-2.9,62.901,10.851c13.751,13.75,17.606,36.09,10.855,62.904c-7.285,28.936-26.072,59.646-52.899,86.473    c-28.822,28.824-74.582,29.684-104.464,2.698C299.126,156.986,297.537,107.107,328.506,76.16z M122.186,192.017l-7.073-7.019    l70.7-70.691l7.098,7.039c19.499,19.499,19.573,51.125-0.007,70.706C173.502,211.493,141.869,211.698,122.186,192.017z     M199.082,213.06c2.8-2.073,5.464-4.367,7.97-6.877c2.496-2.496,4.776-5.164,6.851-7.975l27.246,24.421l-18.51,16.709    L199.082,213.06z M72.496,481.224c-0.069,0.078-0.139,0.156-0.207,0.236c-11.229,13.253-31.306,14.11-43.593,1.823    c-12.251-12.249-11.47-32.329,1.823-43.594c0.08-0.067,0.159-0.137,0.236-0.206l8.287-7.48l40.934,40.933L72.496,481.224z     M93.394,458.073l-39.488-39.488l14.864-13.417l38.041,38.041L93.394,458.073z M120.228,428.345l-36.594-36.594L307.38,189.784    c3.202,3.986,6.727,7.747,10.575,11.23c1.371,1.238,2.795,2.425,4.242,3.586L120.228,428.345z M270.374,291.854l21.33-23.63    l139.564,126.154l-36.99,36.264L270.374,291.854z M420.97,460.538l-13.358-14.962l38.521-37.764l14.473,13.083L420.97,460.538z     M483.272,483.324c-11.278,11.281-30.758,12.566-43.761-2.006l-5.206-5.836l41.152-41.16l5.753,5.199    c0.079,0.071,0.158,0.141,0.239,0.21C494.692,450.95,495.569,471.028,483.272,483.324z" fill="#FFFFFF"/>
	</g>
</g>
<g>
	<g>
		<path d="M434.181,140.225c-4.239-3.541-10.546-2.975-14.084,1.266c-3.922,4.697-8.144,9.308-12.555,13.71    c-11.807,11.813-29.961,13.952-44.15,5.197c-4.7-2.9-10.859-1.44-13.76,3.26c-2.899,4.699-1.44,10.86,3.26,13.76    c22.122,13.649,50.41,10.317,68.786-8.072c4.828-4.817,9.462-9.878,13.769-15.036    C438.985,150.071,438.418,143.765,434.181,140.225z" fill="#FFFFFF"/>
	</g>
</g>
<g>
</g>
<g>
</g>
<g>
</g>
<g>
</g>
<g>
</g>
<g>
</g>
<g>
</g>
<g>
</g>
<g>
</g>
<g>
</g>
<g>
</g>
<g>
</g>
<g>
</g>
<g>
</g>
<g>
</g>
</svg>
