<?xml version="1.0" encoding="iso-8859-1"?>
<!-- Generator: Adobe Illustrator 16.0.0, SVG Export Plug-In . SVG Version: 6.00 Build 0)  -->
<!DOCTYPE svg PUBLIC "-//W3C//DTD SVG 1.1//EN" "http://www.w3.org/Graphics/SVG/1.1/DTD/svg11.dtd">
<svg xmlns="http://www.w3.org/2000/svg" xmlns:xlink="http://www.w3.org/1999/xlink" version="1.1" id="Capa_1" x="0px" y="0px" width="512px" height="512px" viewBox="0 0 512.002 512.002" style="enable-background:new 0 0 512.002 512.002;" xml:space="preserve">
<g>
	<path d="M96.001,289.143v221.717c5.227,0.748,10.567,1.143,16,1.143h16V288h-16C106.568,288,101.228,288.395,96.001,289.143z    M384.001,288v224h16c5.434,0,10.773-0.395,16-1.143V289.143c-5.227-0.748-10.566-1.143-16-1.143H384.001z M512.001,256   c0-141.385-114.615-256-256-256c-141.385,0-256,114.615-256,256c0,30.709,5.414,60.152,15.328,87.438   C5.593,360.038,0.001,379.363,0.001,400c0,44.677,26.163,83.239,64,101.216V298.784c-10.063,4.78-19.29,11.03-27.429,18.452   c-2.996-14.61-4.571-29.739-4.571-45.236c0-123.712,100.288-224,224-224c123.713,0,224,100.288,224,224   c0,15.497-1.574,30.626-4.57,45.236c-8.141-7.422-17.365-13.672-27.43-18.452v202.432c37.838-17.977,64-56.539,64-101.216   c0-20.637-5.592-39.962-15.328-56.562C506.587,316.152,512.001,286.709,512.001,256z" fill="#FFFFFF"/>
</g>
<g>
</g>
<g>
</g>
<g>
</g>
<g>
</g>
<g>
</g>
<g>
</g>
<g>
</g>
<g>
</g>
<g>
</g>
<g>
</g>
<g>
</g>
<g>
</g>
<g>
</g>
<g>
</g>
<g>
</g>
</svg>
