<?xml version="1.0" encoding="iso-8859-1"?>
<!-- Generator: Adobe Illustrator 19.0.0, SVG Export Plug-In . SVG Version: 6.00 Build 0)  -->
<svg xmlns="http://www.w3.org/2000/svg" xmlns:xlink="http://www.w3.org/1999/xlink" version="1.1" id="Capa_1" x="0px" y="0px" viewBox="0 0 433.6 433.6" style="enable-background:new 0 0 433.6 433.6;" xml:space="preserve" width="512px" height="512px">
<g>
	<g>
		<path d="M292.4,163.363l-20,14c6.4,13.2,10,28,10,43.6c0,27.6-11.2,52.8-29.2,70.8c-18.4,18-43.2,29.2-70.8,29.2    c-27.6,0-52.8-11.2-70.8-29.2s-29.2-43.2-29.2-70.8c0-27.6,11.2-52.8,29.2-70.8s43.2-29.2,70.8-29.2c27.6,0,52.8,11.2,70.8,29.2    l0.4,0.4l20-14c-1.2-1.2-2.4-2.4-3.6-3.6c-22.4-22.4-53.6-36.4-87.6-36.4c-34.4,0-65.2,14-87.6,36.4    c-22.4,22.4-36.4,53.6-36.4,87.6c0,34.4,14,65.2,36.4,87.6c22.4,22.4,53.6,36.4,87.6,36.4c34.4,0,65.2-14,87.6-36.4    c22.4-22.4,36.4-53.6,36.4-87.6C306.4,199.763,301.2,180.563,292.4,163.363z" fill="#FFFFFF"/>
	</g>
</g>
<g>
	<g>
		<path d="M340.4,129.763l-20,14c12.8,22.8,20,49.2,20,77.2c0,43.6-17.6,83.2-46.4,112s-68.4,46.4-112,46.4    c-43.6,0-83.2-17.6-112-46.4c-28.8-28.8-46.4-68.4-46.4-112c0-43.6,17.6-83.2,46.4-112c28.8-28.8,68.4-46.4,112-46.4    c43.6,0,83.2,17.6,112,46.4c2.8,2.8,5.2,5.2,7.6,8l19.6-14c-3.2-4-6.8-7.6-10.4-11.2c-32.8-32.8-78.4-53.2-128.4-53.2    c-50.4,0-96,20.4-128.8,53.6c-33.2,32.8-53.6,78.4-53.6,128.4c0,50.4,20.4,96,53.6,128.8c32.8,33.2,78.4,53.6,128.8,53.6    c50.4,0,96-20.4,128.8-53.6c32.8-32.8,53.6-78.4,53.6-128.8C364.8,187.363,356,156.563,340.4,129.763z" fill="#FFFFFF"/>
	</g>
</g>
<g>
	<g>
		<path d="M244.4,197.363l-20.8,14.4c0.8,2.8,0.8,6,0.8,8.8c0,11.6-4.8,22-12.4,29.6c-7.6,7.6-18,12.4-29.6,12.4    c-11.6,0-22-4.8-29.6-12.4c-7.6-7.6-12.4-18-12.4-29.6c0-11.6,4.8-22,12.4-29.6c7.2-7.6,18-12.4,29.6-12.4c8.4,0,16,2.4,22.4,6.4    l20.8-14.4c-11.6-10-26.4-16-42.8-16c-18.4,0-34.8,7.2-46.8,19.2s-19.2,28.4-19.2,46.8c0,18.4,7.2,34.8,19.2,46.8    s28.4,19.2,46.8,19.2c18.4,0,34.8-7.2,46.8-19.2s19.2-28.4,19.2-46.8C248.8,212.163,247.2,204.563,244.4,197.363z" fill="#FFFFFF"/>
	</g>
</g>
<g>
	<g>
		<path d="M425.6,75.363l-28.4-5.6l4.4-28c0.4-2.4,0-5.2-1.6-7.2c-2.8-4-8.4-5.2-12.4-2.4l-38,26.8c-1.6,1.2-3.2,3.2-3.6,5.6    l-4,19.6l-3.2,15.2l-151.2,106c-1.6-0.4-3.6-0.8-5.2-0.8c-9.2,0-16.4,7.2-16.4,16.4s7.2,16.4,16.4,16.4c8.8,0,16.4-7.2,16.4-16    l151.2-106l15.6,2l19.2,2.8c2.4,0.4,4.8,0,7.2-1.6l38-26.8c2-1.2,3.2-3.2,3.6-5.6C433.6,81.363,430.4,76.563,425.6,75.363z" fill="#FFFFFF"/>
	</g>
</g>
<g>
</g>
<g>
</g>
<g>
</g>
<g>
</g>
<g>
</g>
<g>
</g>
<g>
</g>
<g>
</g>
<g>
</g>
<g>
</g>
<g>
</g>
<g>
</g>
<g>
</g>
<g>
</g>
<g>
</g>
</svg>
